# xmcd CD database file
#
# Track frame offsets:
#	150
#	11330
#	27112
#	38682
#	58992
#	73852
#	87832
#	99602
#	112425
#	122500
#	141442
#	160555
#
# Disc length: 2311 seconds
#
# Revision: 1
# Processed by: cddbd v1.5.1PL2 Copyright (c) Steve Scherf et al.
# Submitted via: CDex 1.51
#
DISCID=a109050c
DTITLE=Small Faces - Ogdens' Nut Gone Flake
DYEAR=1968
DGENRE=Rock
TTITLE0=Ogdens' Nut Gone Flake
TTITLE1=Afterglow
TTITLE2=Long Agos And Worlds Apart
TTITLE3=Rene
TTITLE4=Song Of A Baker
TTITLE5=Lazy Sunday
TTITLE6=Happiness Stan
TTITLE7=Rollin' Over
TTITLE8=The Hungry Intruder
TTITLE9=The Journey
TTITLE10=Mad John
TTITLE11=Happydaystoytown
EXTD=YEAR: 1968
EXTT0=
EXTT1=
EXTT2=
EXTT3=
EXTT4=
EXTT5=
EXTT6=
EXTT7=
EXTT8=
EXTT9=
EXTT10=
EXTT11=
PLAYORDER=
